<svg id="Layer_1" data-name="Layer 1" xmlns="http://www.w3.org/2000/svg" xmlns:xlink="http://www.w3.org/1999/xlink" viewBox="0 0 790 792"><defs><style>.cls-1{fill:url(#linear-gradient);}.cls-2{fill:#fff;}.cls-3{fill:url(#linear-gradient-2);}.cls-4{fill:url(#linear-gradient-3);}.cls-5{fill:url(#linear-gradient-4);}.cls-6{fill:url(#linear-gradient-5);}.cls-7{fill:url(#linear-gradient-6);}.cls-8{fill:url(#linear-gradient-7);}.cls-9{fill:url(#linear-gradient-8);}</style><linearGradient id="linear-gradient" y1="396" x2="790.01" y2="396" gradientUnits="userSpaceOnUse"><stop offset="0" stop-color="#d41100"/><stop offset="1" stop-color="#cdd400"/></linearGradient><linearGradient id="linear-gradient-2" x1="197.63" y1="394.8" x2="528.76" y2="394.8" xlink:href="#linear-gradient"/><linearGradient id="linear-gradient-3" x1="261.74" y1="362.75" x2="605.63" y2="362.75" xlink:href="#linear-gradient"/><linearGradient id="linear-gradient-4" x1="209.88" y1="370.36" x2="677.23" y2="370.36" xlink:href="#linear-gradient"/><linearGradient id="linear-gradient-5" x1="260.43" y1="151.49" x2="505.43" y2="151.49" xlink:href="#linear-gradient"/><linearGradient id="linear-gradient-6" x1="555.4" y1="441" x2="664.9" y2="441" xlink:href="#linear-gradient"/><linearGradient id="linear-gradient-7" x1="328.67" y1="649.22" x2="488.99" y2="649.22" xlink:href="#linear-gradient"/><linearGradient id="linear-gradient-8" x1="124.98" y1="395.17" x2="192.39" y2="395.17" xlink:href="#linear-gradient"/></defs><title>DINR Square Logo 1</title><rect class="cls-1" y="0.03" width="790.01" height="791.95" rx="144" ry="144"/><path class="cls-2" d="M63.73,529.62l-5.11-3.32-1.85.76c-.32-3.1-.64-6.1-1-9.19,2.43-2,2.64.63,3.18,2.92l6.46-16.63,5.11,1.43c-2.86-4.87-5.17-8.79-7.93-13.5-2,1.9-3.81,3.64-6.19,5.93-.33-5-.64-9.75-1-14.54l-2.62,4.45c-2.5-5.26,4.5-9.57.56-15.14-1.41,2.46-2.66,4.64-3.9,6.82l-1.28-.31a51.75,51.75,0,0,1,1.28-6c1.91-5.73,2-11-1.29-16.6-2.29-3.89-3.91-7.95-8.17-10.39-.89-.5-1-2.33-1.4-3.55,1.07-.29,2.17-.53,3.22-.89.82-.28,1.59-.71,2.38-1.07-.34-.67-.53-1.79-1-1.93-3.6-1-3.73-3.38-3.2-6.36a12.34,12.34,0,0,0-.47-4.22c-1-5.69-2.37-11.28-.6-17.16.68-2.24-.08-4.9-.23-7.37-.19-3.09.45-6.59-.86-9.14-1.6-3.11,1.06-4.74,1-7a132.39,132.39,0,0,0-.85-13.5c-.29-2.81-1.05-5.56-1.59-8.34l1.26-.46,3.86,6.83,1.46-6.29.79,0c.27,1.36.53,2.72.8,4.08l.68-.05.55-4.44,3.56,6-2.7,3.64L57.45,381c1,4.76,2.08,10.7,8.56,14.54,0-5.35-4-10.84,2.27-14.48l1.53,3.53,1.24-.08c.64-5.2,1.29-10.4,2-15.89,7.26-.48,9.3-5.75,10.11-11.43,1.92-13.49,3.43-27,5.11-40.55.3-2.38.58-4.76,1-7.75-3,1.91-3.59,4.09-4,6.67-1.81,12-3.88,24-5.71,36.06C79,355,79,358.46,78,361.94q-.73-5.61-1.45-11.22c-5-2.06-1.74-6.75-3.37-9.9l0,.17c2.09-11.07,7.28-21.51,7.56-32.75-2.25-1.43-5.36-2.38-5.59-3.77-.44-2.67.76-5.58,1.51-9.64l4.3,7.47c3.29-3.11,4.47-7.06,4.9-11.07.48-4.42,2.27-8.28,3.9-12.32,3.54-8.78,6.63-17.73,10.07-26.56a47.14,47.14,0,0,1,3.94-7.59c2-3.29,4.31-6.43,7.26-10.76.6,4.94-1.91,7.67-2.75,10.78s-1,3,2.93,6c3-6,6-11.94,8.91-17.85-2.16-6.65,3.06-11.57,4.34-17.41.08-.35-.19-.78-.63-2.34-4.6,6.31-7.44,12.75-11.08,19.23-1.51-4.27-1.61-4.31.15-7.72,2.49-4.79,5.24-9.45,7.68-14.26,1.55-3.05,2.74-6.28,4.09-9.42l-1.1-.76-3.07,1.4c-.35-2.69-.67-5.2-1-7.81,5.18-1,5.52,1.81,5.12,5.32l1.41-.13c2.63-3.66,5.29-7.3,7.88-11,1.43-2.06,2.72-4.21,4.09-6.3,1-1.53,2.26-1.74,3.77-.7h0c-3.59,3.16-4.45,7.64-6.72,11.42,3.45,2.6,5.85,2.17,7.9-.78,2.25-3.23,4.47-6.48,6.86-9.62a52.69,52.69,0,0,1,4.13-4.34l-.12-.12q-2.92,5.66-5.86,11.32a20.61,20.61,0,0,0,5.55-5.46c4.13-5.49,7.88-11.29,12.37-16.5C177.84,153,190,139,204,126.81a36.59,36.59,0,0,0,2.62-2.8,37.93,37.93,0,0,0-9.79,7.07c-8.76,8.49-17.38,17.1-26.06,25.66l-.5-.44c3.9-4.87,7.46-10.05,11.8-14.53,4.76-4.91,10.66-8.7,13.77-15.17,1.28-2.66,4.21-4.58,6.46-6.91l-8.84,1.2c-.51-3.14-1.05-6.54-1.63-10.17,3.22-2.69,8.27-4.57,14.09-5.39,1.16-.16,2.2-1.18,3.27-1.83,6.08-3.7,12.23-7.3,18.17-11.19,1.76-1.15,2.93-3.13,4.57-5l2.35.44,1.85-6.72c7-2.33,13-4.39,19.07-6.25,1.43-.44,3.08-.19,4.62-.31a16.9,16.9,0,0,0,3.72-.42c12.84-4,25.69-7.95,38.46-12.14,2.91-1,5.36-3.38,8.29-4.13a187.67,187.67,0,0,1,21.28-4.27c6.46-.85,12.95-.91,17.83-6.11.64-.69,2.8-.12,4.25,0,2.53.2,5.2,1.11,7.56.63,11.6-2.4,23.27-1.06,34.92-1.15,6-.06,12-.21,18-.15,14.39.13,28.58,1.95,42.8,4.07a234.08,234.08,0,0,1,41,9.47,73.82,73.82,0,0,0,8.72,1.89l2.39.21c2.88.68,6.65-.44,7.66,4,.18.77,2.12,1.19,3.27,1.73,6.36,3,12.67,6,19.1,8.86,1.7.75,3.75.73,6,1.13-.78,3.4,3.38,3.12,5.6,4.63.71.48,2.14,0,2.86.48,8.69,5.93,17.39,11.87,25.93,18,12,8.62,24.13,17.15,34.66,27.53a44.58,44.58,0,0,0,4,2.88,33.32,33.32,0,0,1,4.68,4c5,5.81,9.86,11.79,14.89,17.61,2.3,2.66,5,5,7.3,7.69,1.08,1.24,2.48,2.88,2.4,4.27-.27,5.2,3.7,7.64,6.77,10.6,8.16,7.88,15.61,16.28,21.43,26a33.26,33.26,0,0,1,1.26,3.47c.79,1.7,1.27,4.07,2.67,4.86,6.63,3.75,8.8,10.51,12,16.38a263.11,263.11,0,0,1,11.77,24.69c2.26,5.32,4.82,11,5,16.54.14,5.3,1.77,10,3.22,14.79-2.31.65-3.74.39-4.43-2-.87-3-2.07-5.85-3.22-8.73a30.91,30.91,0,0,0-3.87-7.39c-1.68,5,1.12,9.05,2.47,13.36,1,3.32,2.63,6.51,3.41,9.89.72,3.07,1.26,6,3.85,8.25a6.86,6.86,0,0,1,1.73,3.27c2.83,10.39,5.92,20.74,8.22,31.24,1.41,6.4,1.66,13,2.26,19.59a23.9,23.9,0,0,0,4.53,12.18c.26-1.23.85-2.49.74-3.69-1.05-11.51-1.62-23.09-6.39-34-1.87-4.27-3.17-8.78-1.85-13.75.53,1.26,1.09,2.52,1.6,3.79.62,1.53.75,3.59,1.89,4.55,6.51,5.51,5.95,13.49,7.67,20.52s2.16,14.66,3.14,22c.14,1,.22,2.06.26,3.1.46,12.75,1.15,25.5,1.29,38.26.13,12.39-.21,24.79-.55,37.19a56.15,56.15,0,0,1-1.5,10.44q-4.69,21.24-9.61,42.43a205.5,205.5,0,0,1-14.64,42.23c-4.47,9.38-7.84,19.25-12.4,28.59-5.78,11.82-8.46,25.14-18,35.19-.86.9-1.27,2.43-2.27,2.92-3.47,1.7-3.91,4.71-4.11,7.84-.21,3.45-2,5.68-5.08,7.32-3.34,1.81-6.2,3.64-6.82,8.13-.36,2.62-2.43,5.43-5.42,7.22a23.32,23.32,0,0,0-7,6.33c-2.94,4.15-7.33,6.25-11.41,8.84-10.73,6.82-21.45,13.63-32.26,20.33-1.67,1-3.77,1.45-5.65,2.19s-3.84,1.58-5.9,2.42l-.87-4.11c-6.43,3.89-11.83,7.46-14.63,14.59-1.52,3.85-6.06,6.71-9.5,9.72A97.77,97.77,0,0,1,539.4,710c-1.58.64-2.77,2.18-3.89,3.82,7.1.7,11.79-6.15,18.6-5.12-.19.8-.52,2.12-.94,3.84-4.71,0-8.76,3-12.87,5.3-8.59,4.77-17.74,7-27.41,7.79-1,.09-2.5.07-3-.52-3.36-3.85-7.11-2.81-11-1.2a4.31,4.31,0,0,0-2,.88l11.2,2.47c-12.05,2.25-15.39,1.19-22.24-4.09a5.39,5.39,0,0,0-3.48-.63c-11.47,1.28-22.92,2.78-34.4,4-7.17.74-14.38,1.21-21.58,1.47-7.41.27-14.84.09-22.26.19-1.66,0-3.32.4-5.54.68.52,1.62.91,2.86,1.12,3.5l-5.24,4.4L389,730.13l5.47-.39,0-1c-9.5-1.14-19.11-1.75-28.46-3.58-9-1.76-18.76-.84-27-6.19,5-.36,9.94,2.81,15.09.18-.88-3.53-3.63-1.33-5.52-1.75-2.48-.55-4.83-1.64-7.31-2.22-2.26-.53-4.61-.69-7.16-1,.26,1.69.51,3.33.89,5.76l-8.86-2c0-.31.07-.61.11-.92l5.74.33c-2-1.81-2.81-3-4-3.54-5-2.29-10.15-4.22-16-3.34-2.95.44-5.9.13-8.33-2.24a7.38,7.38,0,0,0-4.53-2.06c-4.72-.07-8.57-2.21-12.59-4.1-2.23-1.06-4.62-1.81-7.23-2.81l.95-1.76c-1.19-.6-2.37-1.23-3.57-1.82-7.5-3.72-13.6-9.71-21.74-12.41a43.35,43.35,0,0,1-7-3c-1.31-.72-2.26-2-3.4-3.07l-.18.13,18.24,6.65c.12-.3.24-.61.37-.91L249,675.91c4.23-2.61,9.1-3,11.41-7.49l-7.86-10.53,16.34,5.48c1.38,1.81,2.89,4.53,5.14,6.43,1.12.94,3.83,1,5.38.37,1.73-.68,2.66.19,4,.37a100.73,100.73,0,0,0,12.3.61c.39,0,.78-1.2,1.18-1.84h2.79c.15-.34.3-.69.46-1l-5-3.74-.91.78,2.67,4.43c-4.42-1.83-8.84-3.66-13.25-5.53a2.83,2.83,0,0,1-1.49-1.05c-2.84-6.1-9.35-7.44-14.5-10.53a35.08,35.08,0,0,1-8.86-6.83l3.67.21-4-4.95c4.59,1.69,7.79,4.83,13.71,4.11l-11.14-7.33c.1-.14.6-.75,1.09-1.36l-.14.14,8.41,2.44-4.15-5.38c8.44,3.79,16.1,8.5,25.93,9.69-2.14-3.84-10.19-2.85-7.63-9.56,1.36,1.36,2.57,2.74,4,3.92.72.61,2.16,1.45,2.62,1.17,3.71-2.23,6.27,0,9.27,1.6,1.74.91,4.08.88,6.17,1,3.41.23,6.39.88,7.24,5.33-5.74-.57-11.31-.73-16.49-3.56,5.49,6.94,48.25,19.8,65.91,20.49l-1.22-4.34h7.24c-.6,1.92-1,3.29-1.68,5.4l30.84,3.09c.44-5.16-4-5.28-6.24-7.8l18.57,1.78c-1.66,3.7-3.68,2.22-5.62,1l-2.92,4.2c8.41,1,16.64,1.2,24.82-.87a11.87,11.87,0,0,1,3.61-.33c5.92.42,11.83,1.11,17.77,1.37,5.28.24,10.58.05,16.15.05l1.56-4.77c3.07-2.22,8.5.18,9.49-4.94,1.33.29,3.19,1.17,4.91,1,2-.25,3.51-1.58,2.17-4-.05-.09,2.1-1.29,3.86-2.36l-1.38,5.24c3.54-1,6.66-1.25,8.85-2.74,4.77-3.24,10.4-3,15.57-4.53l-3.51,1.94-4.65,2.42c2.24.25,4.19,0,4.63-2.48a15.1,15.1,0,0,0,3.38,1.13c.4,0,1.16-1,1.31-1.61.07-.31-.86-.84-1.34-1.28l8.28-4.07.24.51-5,4.56c3.49,2.53,6.43.78,9.37.19-.09.61-.17,1.22-.38,2.66l20.25-7.5c.29,4.29.29,4.29-4.21,4.17l.87,4.16c4.58,1.72,8.11.5,11.35-2.18a10.33,10.33,0,0,1,2.88-1.19l-.15-.15c-.45,4.6-4.77,5.48-7.86,7.41s-6.66,3.24-8.8,6.54a9.84,9.84,0,0,0,4.78-1c5.92-3.23,11.83-6.46,17.59-9.94,5.07-3.08,10-6.45,14.89-9.74,2.75-1.84,3.82-4.18,1.93-7.48l-12.59,6.95-.67-.93,5.34-5.91-12.61,1.91c-.35-1.68-.65-3.16-1.06-5.11a58.62,58.62,0,0,0-6.32,2.75c-4,2.38-7.79,5.12-11.84,7.43-3.23,1.84-6.71,3.28-10.08,4.9,3.28-2.49,6.47-5.09,9.86-7.43,6.68-4.63,13.44-9.15,20.23-13.63a24.84,24.84,0,0,1,4-1.74L555,634c3.07-.75,5.34-.78,6.9-1.81,2.36-1.56,6.55-1.71,6-6.12-.07-.55.9-1.31,1.5-1.86,3.37-3,6.77-6,10.14-9.09q3.36-3.79,6.76-7.55c-3.35,1.75-7.86,2.74-6.68,7.63-1.33.09-3-.26-3.94.38-2.4,1.6-4.34,3.85-6.73,5.47-3,2.06-6.3,3.75-9.46,5.6,1.18-1.15,2.33-2.33,3.55-3.44,4.51-4,9.38-7.57,13-12.62,3.35-4.63,8.25-8.2,12.36-12.34a31.67,31.67,0,0,0,3.05-4.15l-1.07-.84c-2.9,2.51-5.82,5-8.7,7.53-7.25,6.35-14.52,12.69-21.69,19.13-1,.91-1.53,2.33-2.28,3.52l0,0c.08-1.3-.39-3,.31-3.83,4.33-4.84,8.94-9.43,13.42-14.15,2.8-2.95,6.92-5.2,6-10.23a1.62,1.62,0,0,1,.52-1.1c4.55-5,9.07-10,13.72-15,2-2.12,4.77-3.7,6.3-6.06,1.85-2.84,6.51-2.24,7.14-6.91.43-3.11,4-5.72,5.78-8.77,3.33-5.7,7.42-10.93,8.67-17.77.71-3.88,4.06-7.22,5.59-11.05,2.44-6.12,4.36-12.45,6.47-18.7.26-.77.14-1.73.55-2.4,7-11.45,11.25-23.9,14.11-36.83a29.58,29.58,0,0,0,1-7.95c-.51-8.81,1.92-16.94,4.55-25.3a86.57,86.57,0,0,0,3-40.43,58.76,58.76,0,0,1-.63-11.56c.18-5.09.95-10.16,1.27-15.26.12-2-.43-4.06-.41-6.09.1-15.62-3.83-30.66-8.1-45.47-2.32-8-4.39-16.24-7.47-24.07-1.19-3-3.4-5.66-5.09-8.51-1.26-2.14-3.26-4.24-3.5-6.5-1.51-14-9.26-25.4-16-37.27-1.63-2.88-2.81-6-4.19-9,3.4-.5,1.19-2,.48-3s-1.87-2.57-2.7.06c-6.41-7.88-12.86-15.74-19.23-23.66-1.7-2.12-3.24-4.25-6.53-3.63.91-4.06-1.56-6.23-4.7-8-5.42-3-10.38-6.27-11.87-12.84-.32-1.37-2.54-2.95-4.15-3.3-5.45-1.19-9.55-3.92-13.43-7.79-4.88-4.87-11.55-8.29-15.69-13.61-5.9-7.58-15.16-7.26-22.52-11.19-1.29-.69-3.25-.9-3.9-1.92-4.8-7.61-13.06-6.77-20.43-8-6-1-11.94-1.44-17.14-5.36-3.13-2.36-7.13-4.8-11.74-1.92a6.29,6.29,0,0,1-4.38.56c-5.52-1.4-11.37.5-16.9-2.07-2.46-1.14-5.89-.49-8.88-.42-12.76.29-25.45-1.71-38.21-1.24-2.93.11-5.81,1.21-8.74,1.75-3.52.66-7.13,1.9-10.59,1.63a41.44,41.44,0,0,0-15.06,1.86c-7.13,2-14.56,3.1-21.78,4.9-6.81,1.7-13.52,3.8-20.26,5.77-4.26,1.24-8.72,2.13-12.69,4a135.81,135.81,0,0,0-18.32,9.92c-8.53,5.69-17.48,11.23-24.59,18.37-6.3,6.33-13.77,11.54-19.13,18.83-2.64,3.59-6.51,6.33-9.76,9.51a15.65,15.65,0,0,0-2.77,3.38c-1.1,1.95-1.59,4.66-4.87,2.36-.19-.13-.78.16-1.13.34-2.57,1.34-7.09,9.69-6.5,12.48a6.07,6.07,0,0,1-2.33,6.69L207.59,226c.09,3.8,1.2,7.89-4,9.09,1.5-1.25,2.49-2.61,1-4.76-1.75,1.4-3.17,2.66-.9,4.68-1.66,4.41-2.57,9.29-5.17,13.1-3.6,5.27-5.59,11.07-7.72,16.81-1.61,4.33-1.79,9.06-5.18,12.85-.9,1-.13,3.39-.13,5.78-3.4.88-3.76,3.92-3.66,7.38a23.86,23.86,0,0,1-.77,7.3c-.44,1.46-2,2.6-3.36,4.18a8.4,8.4,0,0,1-2,9.67c-5.7,5.09-4.76,11-4.2,17.17,0,.21,0,.42,0,.76a13.51,13.51,0,0,0-3.3,1.86c-.22.21,1.12,1.69,1.37,2.68a13.25,13.25,0,0,1,.12,7.11c-.56-1.16-1.13-2.32-1.76-3.63-2.5,3.81-2.3,9.06.42,13.5a46.61,46.61,0,0,0-2.51,6.9c-.46,2.23-1.53,4.59,1.1,6.78,1.08.89.82,3.43.91,5.23.13,2.68,0,5.37,0,8-1.07.43-2.56.64-2.73,1.2a11.13,11.13,0,0,0-.14,4.31c.92,7.7,1,15.54,4.39,22.83,1.21,2.57.8,5.25.15,8.25-1.42,6.6-1,13.34,3.73,19.11,2.44,3,4.31,6,4.06,10.37-.22,4,1.46,8,2.11,12.08,1,6.31,1.57,12.7,2.89,18.94.92,4.36,2.93,8.5,4.23,12.79,3.06,10.06,5.92,20.17,9,30.21a32.48,32.48,0,0,0,7.82,13.22c3.56,3.69,7.73,6.2,12,8.92,4.12,2.61,7.37,6.84,10.23,10.86a119.4,119.4,0,0,1,8.3,14.56c3.3,6.4,3,7.07-4,10.62.41,3.21.85,6.58,1.32,10.26-4.24,1.49-7.09,3.48-5.84,8.26.32,1.2-1.51,2.83-2,4.36a24.54,24.54,0,0,0-.5,4.69l-4.73-2.53-15,13.08c-.3.26-.6.64-1,.7-10.32,1.82-17.07,10.07-26.49,13.69-4.11,1.58-7.11,5.82-12.35,5.24-2.57,3.11-6.28,3.51-10,4.58-5.25,1.52-10.15.46-15.2.08-2.16-.16-4.31-.35-7.29-.6-3.51-7.15-12.78-6.37-18.77-10.94-5.66,7.14-4.6,14.7-4.38,22.31a83.18,83.18,0,0,0-3-9.08,10.89,10.89,0,0,0-3.71-4c-4.29-3.06-6.52-7-6.39-12.18.12-4.94.16-9.77,1.56-14.71.86-3-.77-6.83-1.74-10.16a36.85,36.85,0,0,0-3.3-6.7c-1.13-2.11-3.33-3.93-.31-6.49.76-.64.29-3.18-.26-4.63-2-5.2-4.19-10.3-6.49-15.83-1,.24-1.93.53-2.87.69-3.11.52-4.86-.59-5.29-3.77a13.81,13.81,0,0,0-2.21-5.62c-1.93,3.3-6.43,5.2-4.61,9.88a1.61,1.61,0,0,1-.44,1.5c-4.22,2.4-2.94,5.94-1.92,9.24.66,2.15.75,3.63-2.12,4.25-2.93-2-2.19-4.94-1.87-7.71.21-1.85,1-3.68.88-5.49-.09-1.63-1-3.22-1.56-4.93.45-3.53.95-7.29,1.39-11,.21-1.83-.16-3.86.56-5.46.87-1.92,2.61-3.49,4.56-5.95-1.44-3.39-3.32-7.84-5.2-12.28l6.94,5.34,3.89-.5c-2.89-7.86-4.75-15.51-10.26-23.29C62,518.16,60.82,523.83,63.73,529.62ZM325,692.88c-1.55-3.74-2.34-4.14-8.22-4,2,3.33,5.76,2.43,8.41,3.77,1.88,4.93,5.5,6.6,14.46,5.95-2.39-1.11-3.75-1.85-5.19-2.39C331.32,695.08,328.14,694,325,692.88ZM448.48,706c3.35,2.06,7.07,1.32,10.58.91,1.37-.15,2.52-2.09,4.52-3.9H451.21c.31-1.31.56-2.33,1-4.24L444,700.85c4.26,1.7,4.26,1.7,4.67,5.35L440,707.71a14.16,14.16,0,0,0,7,.79C447.62,708.42,448,706.88,448.48,706Zm-8.7-15.86c-3.57-1.09-7.72-1.42-10.57-3.45-4.17-3-8.57-3.89-13.47-3.77V680a81.73,81.73,0,0,0,8-2.09c2.36-.87,5.45,1,8.44-2.62-4.56,0-8-.47-11.21.13-3.39.63-5.79-.11-7.93-2.53L423.33,671c-3.49-1-6.83-.9-10.17-1s-6.6-.31-9.89-.47c1.27,1,2.77,1.2,4.2,1.6,2,.56,3.88,1.28,5.82,1.93-3.7,3.42-3.65,3.25-9,1.91a42.67,42.67,0,0,0-7.95-.7c-2.47-.14-5.11.36-7.4-.3-6.79-2-13.58-3.29-20.71-2.35-.79.1-2.08.06-2.38-.39-1.88-2.81-4.52-1.39-6.92-1.43s-5-.22-7.45-.31c-1.06,0-2.12,0-3.18,0l-.19,1.22c6.36,2.27,13.46,1.85,19.72,3.83v3.26c5.36-.82,10.15,3.07,16.63,1.61l-5.19-3.06c8.9.52,17.46,1,26,1.56a19.81,19.81,0,0,1,4.37,1.33c-1.22,4.34-3.93,6.1-8.08,7,3,1,6.75-.31,8.84,3.94-4.06-.42-7.6-.13-10.51-1.29-2.35-.94-6.35.45-7.21-3.64a9.38,9.38,0,0,0-4.64.57c-.81.48-.63,2.5-.87,3.67l-5.69.93c0,.48,0,1,0,1.43,3.48.61,6.95,1.65,10.44,1.73,6.51.15,13-.2,19.54-.48a6.69,6.69,0,0,0,3.29-1.25c2.13-1.51,2-1.56,4.56,0a4.54,4.54,0,0,0,2.32.88,70.57,70.57,0,0,0,18-2.65l6,.28a6.63,6.63,0,0,0-4.19-2C440.9,688.21,440.32,689.48,439.78,690.15ZM550.3,88.61l-.89,1.5c4.25,2.72,8.63,5.28,12.72,8.22a130.46,130.46,0,0,1,12.25,9.8c3.89,3.58,6.63,8.64,13.23,8a2.29,2.29,0,0,1,1.53,1c4.26,5.76,10.25,9.55,15.92,13.84,6.51,4.93,12.2,10.86,18.25,16.36,1.55,1.4,2.84,3.25,5.51,2.82C605.37,126.31,581.62,102.89,550.3,88.61ZM267.9,671.67c4.56,3,2.74,4.75.16,6.54l4.57,2.58,2.37-2.56,7.12,2.53c.31,1.79,1.63,3.83-1.77,4.65-.4.1-.3,2.09-.45,3.32l-2.58.27-.06,1,9.35,3.18,3.95-5.1c6.12-.35,10.68,4.5,17.52,2.89l-8.1-9.16c-3.18,2.33-6.36,2.12-8.27.1A19.13,19.13,0,0,0,288.6,679c-5-3.25-11.64-3.25-16-7.83C272.31,670.82,271.05,671.3,267.9,671.67ZM71.36,420.48c5.46-8.89,4.4-15.88-.37-22.54l-4.73,5.69C67.8,408.73,69.39,414,71.36,420.48ZM375.66,57.77h43C404.37,55,390.06,56.1,375.66,57.77ZM309,659.85a57.34,57.34,0,0,1-18.54-10.4l-5.89,3.16C291.66,658.48,300.25,659.21,309,659.85ZM155.07,213.27c1.85-.65,2.39-.68,2.6-.94q7.92-10.46,15.77-21a5.21,5.21,0,0,0,1.26-2.81c0-1.06-.8-2.1-1.53-3.79ZM358.76,719.54c4.07,4.57,9.66,2.74,14.58,3.42s10.07.71,15.11,1c.06-.63.12-1.27.17-1.9C378.71,721,369,718.33,358.76,719.54ZM199.65,212.21c6.13-3.59,12.2-11.41,13.9-17.35-3.13,1.07-3.12,6.68-7,5ZM451,60.82l.15-1.41-24.77-2.16C434.47,59.66,442.63,61.26,451,60.82ZM626.32,547.26c-4.28,4.22-9.1,13.9-9.46,18.52C621.4,559.49,624.92,553.87,626.32,547.26ZM433.23,701.45a5.85,5.85,0,0,0-2-.82c-5.47,0-11,0-16.42.14a42.8,42.8,0,0,0-5.26.94C418.28,705.51,425.6,701.13,433.23,701.45ZM229.2,185.1c-4.28,1.89-8.34,6.75-10.37,11.84C222.68,196.19,225.65,192.92,229.2,185.1ZM686.25,568.7c-2,3.48-5,6.15-3.51,10.72,4.58-1.91,5.54-5.64,7-9.27ZM471.4,64.66c-4.79-4.27-10.2-4.09-16.77-3.58C460.42,63.85,465.63,64.52,471.4,64.66ZM382.06,686l.55-1.38L370,680.08C372.69,686.12,377.12,686.64,382.06,686ZM126.16,229.64c-5.84,7.1-7.06,10-6.36,14.9C123.38,240.3,124.72,235.56,126.16,229.64ZM387.34,705.57c7.89,4.65,7.89,4.65,11.44,3.45C392,705,392,705,387.34,705.57ZM370,689.49c-3.51-2.79-7.5-3.61-12.44-3C361,691.85,365.83,689.24,370,689.49Zm-30.66-7c2.81,3.7,7.14,4.86,12.18,2.87Zm-37.84-32.78c3.33,4.18,7.94,4.94,13,4.63Zm-19,3.23c-3.59-6.73-4.36-7.14-8.87-5.21Zm291.29-21.71c4.52-.19,6.2-3.22,8.69-6.56C577.54,625,575.05,627,573.75,631.19ZM194.58,182.14c-3.57,1.57-5.66,4-5.85,8.26C193.83,189.22,193.26,185.05,194.58,182.14Zm159.2,491.47c5.79,4.2,5.79,4.2,8.9,1.48Zm-.26,24.6c-4.32-3.47-4.32-3.47-9.13-1.2ZM604.05,222.48l1.32-1a16.4,16.4,0,0,0-8-8.14ZM180.22,177c-3.13,1.08-4.45,3.46-5.69,6.55C180.24,183.67,179.12,179.57,180.22,177ZM340.4,663.51c.18-.7.37-1.4.56-2.1L329.76,659c-.14.52-.27,1-.41,1.57Zm-159.83-471,1.54,1,4.92-6.81-1.35-1Zm320.8-56.17c.18-.4.36-.81.55-1.21-2.84-2.75-2.93-2.78-8.39-1.6Zm152.7,488.1,1.58,1a12.77,12.77,0,0,0,4.62-6.66l-1.18-.81ZM227.68,178.24c-3.51,2.59-5.51,4.39-5.89,8.58C224.78,184.34,226.69,182.48,227.68,178.24Zm178.52,525c-4.49-2.68-4.49-2.68-8.85-.45Zm77-34.12-.74-1.28c-2.16.3-4.49.2-5.95,2.09l.55,1.38Zm-259.31-467c4.75-1.4,2.9-4.14,3-6.51l-1.34-.3Zm3.29-94.75.95,1.16,6.19-4.47C231.65,104.76,228.32,104.34,227.18,107.37Zm3-7.09-1.15-1.75-4.92,3.65.85,1.21ZM94.09,291.13l-1.4-.36-1.86,7,1.43.36ZM534.76,81.85c3.78,2.37,6,4.42,9.44,4C541.72,84.28,539.55,82,534.76,81.85ZM294.4,648.09l.39-1.28L287,644.34l-.48,1.29A11.23,11.23,0,0,0,294.4,648.09Zm103.7,30.46c2.79,4.5,3.15,4.56,6.4,1.7Zm-181-479.35-1.72-.67c-1,2.18-2,4.37-3,6.56l1.25.52ZM459.45,674.75l-.09-1.19-8.55.71.1.48Zm-127.72,5.79c1.49,3.23,1.49,3.23,5.24,1.83Zm18.16-16.6c6,2.89,6,2.89,10.35,1.63Zm57.71,60.5.09-1.72-7.75-.53,0,.94ZM275.18,77.79c.16.37.31.75.47,1.12l6-2.23-.51-1.23ZM351.54,700.1c2.57,2.07,2.57,2.07,4.89.39Zm42.79-30.79c0,.38,0,.77,0,1.16,1.41,0,2.82,0,4.23,0,.09,0,.14-.62.25-1.12ZM368.94,705l5.63.27C372.9,702.93,371.17,701.53,368.94,705Zm309.7-116.86-1.3-.71c-.86,1.38-1.73,2.77-3,4.84C678.22,591.92,678.24,589.88,678.64,588.12ZM354.39,60.53V59.44l-7.4.36c0,.43.07.87.1,1.3ZM536.12,653.15c-.28-.35-.57-.69-.86-1-1.74.64-3.76,1-4.45,4.5ZM257.05,84.31l.27,1.11a6.84,6.84,0,0,0,2.27-.06,7.86,7.86,0,0,0,1.9-1.45l-.49-.86Zm89.75,616.9.3-1.1-5-1.44c-.13.44-.25.89-.37,1.34Zm103.81-13.74-1.76,1.17a15.22,15.22,0,0,0,1.78,2.05c.16.12.95-.48,1.45-.75C451.63,689.17,451.17,688.41,450.61,687.47ZM161,335l1.46.21v-5.65l-.76-.07ZM264.22,676.82l.92-1.05-3-2.25-.78.91Zm70.34-12.1a14.7,14.7,0,0,0-1.23,2.36,9,9,0,0,0,2.62,1.34c.13.05,1-1.1.86-1.32A16.31,16.31,0,0,0,334.56,664.72ZM135.62,196l-1.46-.85-2,3.39,1.06.64ZM304.11,69.34l.35,1.19,4.37-1.45c-.08-.28-.17-.56-.25-.85Zm117.58-17.1c2.05,1.48,3.28,2.64,4.92-.22Zm46.64,619.07.16,1.67,4.89-.74-.16-1.24ZM635.61,527.4l-1.45-.74c-.37,1-.75,2.05-1.06,3.1a3.41,3.41,0,0,0,.89.41C634.56,529.27,635.08,528.33,635.61,527.4ZM339.83,706.31l-.48.75,3.73,1.14.27-.77Zm48.55-26.71c.13.4.25.8.37,1.2l3.2-1.21-.12-.56ZM317.83,661c.16,2.61,1.52,3.21,4.9,2.71ZM197.68,173.56l-1.3-.9-2.28,3.2,1.05.72ZM466.05,673.19c-.1-.41-.19-.82-.29-1.22l-3.6.95.21.9Z"/><path class="cls-2" d="M165.46,141.49c1.37-.92,2.78-1.78,4.08-2.78,1-.77,1.79-2.4,2.77-2.47,6.14-.43,9-5.6,14.21-7.92-1.78,2.61-3.28,5.46-5.4,7.8-10.27,11.31-21.58,21.76-30.12,34.52-1.55,2.32-4.32,3.85-6.31,6a30.18,30.18,0,0,0-3,4.47l0,0c-1.24-3.11.13-5.68,1.92-8.08,5.23-7,10.64-13.92,15.73-21,2.41-3.36,4.24-7.11,6.33-10.68Z"/><path class="cls-2" d="M64.45,586.36c.77,1.19,1.47,1.8,1.56,2.49.41,3.21.69,6.43.92,9.66a5.73,5.73,0,0,1-.36,3,19,19,0,0,1-2.59,3c-.9-1.21-2.32-2.32-2.57-3.64a13.76,13.76,0,0,1,.51-5.41C62.55,592.75,63.42,590.05,64.45,586.36Z"/><path class="cls-2" d="M73.14,340.82a46.6,46.6,0,0,1-2.61,5.53,8,8,0,0,1-3.75,2.83c-.17-5.4-.45-10.68,3.8-15.06.93,2.59,1.71,4.76,2.51,6.9A1.15,1.15,0,0,0,73.14,340.82Z"/><path class="cls-2" d="M536.46,636.74c-.55-.62-1.1-1.24-2.14-2.39L545.77,627c.6,1,1.11,1.83,2.07,3.4l-11.49,6.22Z"/><path class="cls-2" d="M347.31,655.68c-4,.21-7.62-2.78-11.69-.39-.49.28-1.63-.3-2.39-.64-.54-.25-1.26-.71-1.37-1.18a26.61,26.61,0,0,1-.29-3.87C338,649.56,342.51,653.06,347.31,655.68Z"/><path class="cls-2" d="M153.85,177.75c3.91-8.27,9.67-15.21,16.43-21.45l.5.44c-4.4,5.69-8.76,11.42-13.23,17.07a45.9,45.9,0,0,1-3.82,3.82Z"/><path class="cls-2" d="M59.75,550.43c.38-1.77.68-3.56,1.15-5.31.79-3,1.84-5.89-.75-8.76-.59-.65.1-2.39.29-4.71C64,538.21,63.81,543.42,59.75,550.43Z"/><path class="cls-2" d="M82.54,276.94c3.55,3.87,2.7,6.78.93,9.48-.38.57-2.1.31-4.32.57C80.36,283.39,81.29,280.65,82.54,276.94Z"/><path class="cls-2" d="M148,158.76c1.06-7,7.07-10.18,11.6-15.37.18,1.25.49,1.91.27,2.17-3.69,4.48-7.45,8.9-11.2,13.33a.54.54,0,0,1-.51.11C148,158.9,147.89,158.66,148,158.76Z"/><path class="cls-2" d="M98,243.36c.37,6.24.37,6.24-4.07,10.75,0-3.12-.32-5.58.15-7.89C94.27,245.27,96.16,244.64,98,243.36Z"/><path class="cls-2" d="M56.87,365.89c-5.3-2.34-5.55-6.43-4.14-11.11C52.15,359.26,59.23,360.82,56.87,365.89Z"/><path class="cls-2" d="M358.26,655.94c.49,3.25-.63,4.5-3,4.34-2-.15-3.7-1-3-4Z"/><path class="cls-2" d="M199.79,632c2.73-1.06,4.05-2.07,5.06-1.83s1.91,1.67,2.84,2.57c-.87.71-1.84,2.08-2.6,2C203.72,634.51,202.48,633.44,199.79,632Z"/><path class="cls-2" d="M236.2,673.9l-13-5.64.66-1.26c4.14,2.22,9,3.06,12.22,7Z"/><path class="cls-2" d="M453.46,734.21h-7.81C449.51,731.15,449.51,731.16,453.46,734.21Z"/><path class="cls-2" d="M48.74,321.62c1,2.68,2.09,5.36,3.38,8.65-5-1.55-3.07-5.64-4.63-8.1Z"/><path class="cls-2" d="M30.55,422.85c2.15,1.93,4.35,3.79,1.79,7C29.22,427.93,29.93,425.33,30.55,422.85Z"/><path class="cls-2" d="M212.71,622.45l-6.65-4.57c.33-.42.66-.85,1-1.28l6.45,4.83Z"/><path class="cls-2" d="M156.85,648.81c-1.42-1.73-2.85-3.45-5.1-6.17C156.28,643.47,157.43,645.43,156.85,648.81Z"/><path class="cls-2" d="M121.66,726.46c-1.66-2.68-1.66-2.68-.59-7.77.9,3.36,1.44,5.4,2,7.44Z"/><path class="cls-2" d="M223.05,611.83,218.64,607C221.72,607.14,223.23,608.73,223.05,611.83Z"/><path class="cls-2" d="M42.23,506l3.18-4.88C48.19,505.35,43.55,504.73,42.23,506Z"/><path class="cls-2" d="M59.91,555.94l-1.68,7-.89-.17q.78-3.62,1.54-7.23Z"/><path class="cls-2" d="M251.86,621.34c1.91-1.44,3.34-1.43,4.34.35a1.67,1.67,0,0,1-.58,1.53C253.71,624.46,252.75,623.34,251.86,621.34Z"/><path class="cls-2" d="M165.68,141.28l-3.55,1.38c-1.41-3.35,1.17-3.71,3.76-4.7-.18,1.42-.31,2.48-.43,3.53Z"/><path class="cls-2" d="M557.72,623.42c-2.42-.93-4,3.58-7.06.72,2.27-2.31,4.89-.08,7.08-.75Z"/><path class="cls-2" d="M197.47,653.17l-3.93-3,.42-.68c1.34.8,2.67,1.58,4,2.42A6,6,0,0,1,197.47,653.17Z"/><path class="cls-2" d="M236.1,674q4.14,1.65,8.32,3.27l.21-.15c-3.6.89-6.32-.44-8.43-3.24Z"/><path class="cls-2" d="M300.75,710.14l5.55,1.71c-.16.45-.31.91-.47,1.36A8.73,8.73,0,0,1,300.75,710.14Z"/><path class="cls-2" d="M45.53,626.09v3L43.9,629l.61-3Z"/><path class="cls-2" d="M266.43,630.5,262,627.12l.89-1.19q2.37,1.76,4.73,3.52Z"/><path class="cls-2" d="M262.18,636.49l-6.49-1.29c3.66-1.41,5.46-1.1,6.35,1.44Z"/><path class="cls-2" d="M128.42,649.5c.19,1,.38,2.09.79,4.37l-2-3.94Z"/><path class="cls-2" d="M509.07,62.41l-2.39-.21-2-1.78.71-.87Z"/><path class="cls-2" d="M536.35,636.62l-4.29,3.07-.6-1,5-2Z"/><path class="cls-2" d="M714.61,286.51c-.21-1.08-.43-2.16-.65-3.24l1-.2c.24,1.08.48,2.16.71,3.23Z"/><path class="cls-2" d="M210.59,630.81l-3.27-1.48.4-.87,3.3,1.42C210.88,630.19,210.74,630.5,210.59,630.81Z"/><path class="cls-2" d="M235.49,611.08c-1.66,1-2.39,1.57-2.54,1.46a6.67,6.67,0,0,1-1.18-1.56,5.14,5.14,0,0,1,1.53-.52A9.11,9.11,0,0,1,235.49,611.08Z"/><path class="cls-2" d="M132.34,743.08v-3.67l.37-.06.31,3.7Z"/><path class="cls-2" d="M553.06,651.6c3.12-4.49,3.12-4.49,6.4-6.09-.34,4.18-3.27,5.24-6.55,5.94Z"/><circle class="cls-2" cx="394.04" cy="397.21" r="334.98"/><path class="cls-3" d="M198.36,191.73a38.8,38.8,0,0,1,3.57,3.69c8,10.69,16.27,21.24,23.93,32.2,15.28,21.86,30.23,43.95,45.35,65.92.88,1.28,1.73,3.69,3.71,2.36,1.77-1.19,0-2.94-.76-4.21-14.63-24.49-29.4-48.9-44-73.45-6-10.11-11.56-20.49-17.27-30.77A43.76,43.76,0,0,1,211,183l.67-.46a33.59,33.59,0,0,1,3.3,3.23c8.55,10.91,17.31,21.66,25.48,32.83,15.51,21.2,30.67,42.64,46,64a10.79,10.79,0,0,0,2,2.38,2.45,2.45,0,0,0,2.11.2c.33-.15.47-1.29.31-1.88a8.76,8.76,0,0,0-1.26-2.32c-17-25.75-34.12-51.42-51-77.27-5.32-8.15-10-16.72-14.91-25.13a23,23,0,0,1-1.32-3.25l.55-.47a25,25,0,0,1,2.85,2.58c11.64,14,23.42,27.89,34.82,42.09,14.12,17.57,27.92,35.4,41.86,53.12.1.13.18.27.29.39.9,1,1.85,2.55,3.25,1.38.48-.39.08-2.57-.56-3.49-11-15.82-22.24-31.44-33.05-47.37C261,206.74,250,189.71,238.93,172.74a66.54,66.54,0,0,1-3.43-6.67l.76-.56a30.61,30.61,0,0,1,3.38,2.82C246.8,176.19,254,184,261,192q17,19.52,33.6,39.3c10,11.84,20,23.63,29.53,35.82,9.31,11.94,15.95,25.29,16.58,40.78.2,5-.89,10.07-1.73,15-1.61,9.48-.29,18.07,5.52,26.13,19.63,27.26,38.76,54.89,58.55,82,17.38,23.85,36.44,46.35,56.34,68.16a503.09,503.09,0,0,1,50.1,63.83c6.53,10,12.74,20.23,16.5,31.62a51.8,51.8,0,0,1,2.76,15.11c.18,10.54-9,16.7-19,13.32-6.74-2.27-12.1-6.67-17.12-11.52-13.3-12.87-23.69-28-33.63-43.49-14.13-22-26.36-45.07-38.1-68.41-3.14-6.24-6.64-12.31-10.12-18.38-19.15-33.43-40.27-65.61-62-97.38-6-8.77-12.33-17.34-18.14-26.24-5.14-7.88-12.43-12.5-21.39-13.5-20.22-2.25-33.95-14-44.79-29.79-6.47-9.4-11.83-19.58-17.46-29.54-9.81-17.32-19.62-34.65-29.1-52.15-6.71-12.39-12.9-25.06-19.29-37.62a20.14,20.14,0,0,1-1-2.9Z"/><polygon class="cls-4" points="586.87 76.99 261.74 643.38 271.01 648.51 605.63 92.69 586.87 76.99"/><polygon class="cls-5" points="662.86 131.52 209.88 601.97 217.63 609.2 677.23 151.3 662.86 131.52"/><path class="cls-6" d="M260.43,163.64l3.65-2.09A271.42,271.42,0,0,1,289.3,149.3a270,270,0,0,1,206.84-1.1l3,1.25,1,3.15c.62,2.05,1.15,3.91,1.63,5.69L505.43,172l-13.09-5.6A250.66,250.66,0,0,0,279.62,174l-1.58.82Z"/><path class="cls-7" d="M664.44,378.92a267.36,267.36,0,0,0-27.17-103.34l-.91-1.79c-6.63.37-13.26.92-19.88,1.46A250.65,250.65,0,0,1,646.25,380c4.57,78.87-27.38,153.67-87.66,205.24l-3.19,2.73,1,4.1c.37,1.59.72,3.21,1,4.81l2.36,11.36,8.89-7.46a272.66,272.66,0,0,0,28.12-27.34,268.29,268.29,0,0,0,67.67-194.49Z"/><path class="cls-8" d="M411.39,663.09a268.17,268.17,0,0,1-82.72-8l13.22-15.62a251.73,251.73,0,0,0,122.73-3.75l3-.85,2.62,1.65c1.61,1,3.26,2,4.89,3l13.89,8-15.36,4.63A270,270,0,0,1,411.39,663.09Z"/><path class="cls-9" d="M189.07,541.63a250.34,250.34,0,0,1-4.83-281.78l8.15-12.4-14.74,1.71c-1.91.22-3.79.42-5.59.59l-3.37.32-1.82,2.86a268.78,268.78,0,0,0,.92,290C174.86,542.2,182,541.88,189.07,541.63Z"/></svg>